<svg width="200" height="200" xmlns="http://www.w3.org/2000/svg" fill="none">
 <g>
  <title>Layer 1</title>
  <path stroke="null" id="svg_1" fill="#1E3A8A" d="m-1,68.52459c0,-37.8451 32.45933,-68.52459 72.5,-68.52459l130.49999,0l0,140.4754c0,37.84441 -32.45933,68.52459 -72.5,68.52459l-130.49999,0l0,-140.4754z"/>
  <g id="svg_2" stroke="null">
   <path fill="#E2E8F0" d="m171.92954,43.5171l-12.88616,0l0,-1.91884c-0.00077,-13.56402 -11.77717,-24.59836 -26.25325,-24.59836l-65.5799,0c-14.47608,0 -26.25321,11.03434 -26.25321,24.598l0,1.91902l-12.88616,0c-2.72107,0 -4.92676,2.06664 -4.92676,4.61624l0,28.62033c0,2.5496 2.2057,4.61624 4.92676,4.61624l12.88649,0l0,19.12551c-3.45453,2.53569 -5.68077,6.47617 -5.68077,10.89709l0,31.23118l-3.14067,0c-2.72109,0 -4.92676,2.06664 -4.92676,4.61624c0,2.5496 2.20568,4.61624 4.92676,4.61624l6.32011,0l0,19.52789c0,2.54942 2.2057,4.61624 4.92682,4.61624l24.55631,0c2.72109,0 4.92673,-2.06682 4.92673,-4.61624l0,-19.52789l54.26997,0l0,19.52789c0,2.54942 2.20603,4.61624 4.92673,4.61624l24.55631,0c2.72051,0 4.92673,-2.06682 4.92673,-4.61624l0,-19.52789l6.31996,0c2.72032,0 4.92673,-2.06664 4.92673,-4.61624c0,-2.5496 -2.20603,-4.61624 -4.92673,-4.61624l-3.14147,0l0,-31.23118c0,-7.63127 -6.6256,-13.83967 -14.76996,-13.83967l-99.1435,0l0,-20.79917l0,-28.62033l0,-6.53525c0,-8.47256 7.35683,-15.36576 16.3996,-15.36576l2.97736,0l0,30.76128c0,2.54942 2.20564,4.61624 4.92673,4.61624l49.77153,0c2.72032,0 4.92673,-2.06682 4.92673,-4.61624c0,-2.5496 -2.20603,-4.61642 -4.92673,-4.61642l-44.8448,0l0,-26.14487l52.74908,0c9.04258,0 16.39941,6.8932 16.39941,15.36576l0,38.16448c0,2.54942 2.20603,4.61624 4.92673,4.61624c2.7207,0 4.92673,-2.06682 4.92673,-4.61624l0,-27.01299l7.95943,0l0,24.0041c0,2.5496 2.20603,4.61624 4.92673,4.61624c2.7207,0 4.92673,-2.06664 4.92673,-4.61624l0,-28.62033c0,-2.5496 -2.20603,-4.61605 -4.92634,-4.61605l-0.00003,-0.00001zm-138.93191,28.61997l0,-19.38804l7.96005,0l0,19.38804l-7.96005,0zm30.01441,94.63038l-14.70305,0l0,-14.91147l14.70305,0l0,14.91147zm88.67973,0l-14.70305,0l0,-14.91147l14.70305,0l0,14.91147zm3.17849,-55.37513l0,11.00496l-14.82029,0c-2.72051,0 -4.92692,2.06664 -4.92692,4.61624c0,2.5496 2.20603,4.61624 4.92692,4.61624l14.82029,0l0,10.99394l-22.80826,0l-64.12361,0l-22.80865,0l0,-12.35808l16.13889,0c2.72109,0 4.92673,-2.06682 4.92673,-4.61642c0,-2.54942 -2.20603,-4.61624 -4.92711,-4.61624l-16.1385,0l0,-9.64081c0,-2.54056 2.20603,-4.60738 4.91728,-4.60738l99.90616,0c2.71106,0 4.91708,2.06736 4.91708,4.60756l-0.00001,-0.00001z" id="svg_3" stroke="null"/>
  </g>
 </g>

</svg>