<svg width="80" height="88" viewBox="0 0 80 88" fill="none" xmlns="http://www.w3.org/2000/svg">
<path d="M77.1571 14.6762H70.4746V13.6142C70.4742 6.10706 64.3672 0 56.8602 0H22.8518C15.3448 0 9.23742 6.10706 9.23742 13.614V14.6761H2.55492C1.14383 14.6761 0 15.8199 0 17.231V33.0712C0 34.4823 1.14383 35.6261 2.55492 35.6261H9.23759V46.2113C7.44614 47.6147 6.29166 49.7956 6.29166 52.2424V69.5276H4.66297C3.25187 69.5276 2.10805 70.6714 2.10805 72.0825C2.10805 73.4936 3.25187 74.6374 4.66297 74.6374H7.94045V85.4453C7.94045 86.8563 9.08428 88.0002 10.4954 88.0002H23.2298C24.6409 88.0002 25.7847 86.8563 25.7847 85.4453V74.6374H53.928V85.4453C53.928 86.8563 55.072 88.0002 56.4829 88.0002H69.2173C70.6281 88.0002 71.7722 86.8563 71.7722 85.4453V74.6374H75.0496C76.4603 74.6374 77.6045 73.4936 77.6045 72.0825C77.6045 70.6714 76.4605 69.5276 75.0496 69.5276H73.4205V52.2424C73.4205 48.0188 69.9846 44.5827 65.7611 44.5827H14.3473V33.0712V17.231V13.614C14.3473 8.92478 18.1624 5.10967 22.8518 5.10967H24.3958V22.1348C24.3958 23.5458 25.5396 24.6897 26.9507 24.6897H52.7612C54.1719 24.6897 55.3161 23.5458 55.3161 22.1348C55.3161 20.7237 54.1721 19.5798 52.7612 19.5798H29.5056V5.10967H56.8602C61.5495 5.10967 65.3646 8.92478 65.3646 13.614V34.7365C65.3646 36.1475 66.5086 37.2914 67.9195 37.2914C69.3304 37.2914 70.4744 36.1475 70.4744 34.7365V19.7859H74.602V33.0712C74.602 34.4823 75.746 35.6261 77.1569 35.6261C78.5678 35.6261 79.7118 34.4823 79.7118 33.0712V17.231C79.7118 15.8199 78.5678 14.6762 77.1571 14.6762ZM5.10984 30.5162V19.7857H9.23776V30.5162H5.10984ZM20.6747 82.8903H13.05V74.6374H20.6747V82.8903ZM66.6622 82.8903H59.0375V74.6374H66.6622V82.8903ZM68.3105 52.2424V58.3332H60.625C59.2142 58.3332 58.07 59.477 58.07 60.8881C58.07 62.2992 59.214 63.443 60.625 63.443H68.3105V69.5277H56.4826H23.2294H11.4013V62.688H19.7706C21.1817 62.688 22.3255 61.5441 22.3255 60.133C22.3255 58.722 21.1815 57.5781 19.7704 57.5781H11.4013V52.2423C11.4013 50.8362 12.5453 49.6923 13.9513 49.6923H65.7606C67.1665 49.6923 68.3105 50.8365 68.3105 52.2424Z" fill="#E2E8F0"/>
</svg>
